<svg width="18" height="14" viewBox="0 0 18 14" fill="none" xmlns="http://www.w3.org/2000/svg">
<path d="M10.96 2.37333C10.8618 2.28178 10.783 2.17138 10.7283 2.04872C10.6737 1.92605 10.6443 1.79364 10.6419 1.65936C10.6395 1.52509 10.6642 1.39172 10.7145 1.2672C10.7648 1.14269 10.8397 1.02957 10.9346 0.934617C11.0296 0.839658 11.1427 0.764799 11.2672 0.714504C11.3917 0.664209 11.5251 0.63951 11.6594 0.641879C11.7937 0.644248 11.9261 0.673637 12.0487 0.728293C12.1714 0.782949 12.2818 0.861752 12.3734 0.960001L17.7067 6.29333C17.894 6.48083 17.9991 6.735 17.9991 7C17.9991 7.265 17.894 7.51917 17.7067 7.70667L12.3734 13.04C12.2818 13.1383 12.1714 13.2171 12.0487 13.2717C11.9261 13.3264 11.7937 13.3558 11.6594 13.3581C11.5251 13.3605 11.3917 13.3358 11.2672 13.2855C11.1427 13.2352 11.0296 13.1603 10.9346 13.0654C10.8397 12.9704 10.7648 12.8573 10.7145 12.7328C10.6642 12.6083 10.6395 12.4749 10.6419 12.3406C10.6443 12.2064 10.6737 12.0739 10.7283 11.9513C10.783 11.8286 10.8618 11.7182 10.96 11.6267L14.5867 8H1.66669C1.40148 8 1.14712 7.89464 0.959585 7.70711C0.772049 7.51957 0.666693 7.26522 0.666693 7C0.666693 6.73478 0.772049 6.48043 0.959585 6.29289C1.14712 6.10536 1.40148 6 1.66669 6L14.5867 6L10.96 2.37333Z" fill="white"/>
</svg>
