<svg width="32" height="32" viewBox="0 0 32 32" fill="none" xmlns="http://www.w3.org/2000/svg">
<path d="M4.68783 27.312C3.15967 25.836 1.94076 24.0705 1.10221 22.1185C0.263667 20.1664 -0.177712 18.0669 -0.196173 15.9424C-0.214634 13.8179 0.190193 11.7111 0.994687 9.74472C1.79918 7.77838 2.98723 5.99195 4.48951 4.48967C5.9918 2.98738 7.77823 1.79933 9.74457 0.99484C11.7109 0.190345 13.8178 -0.214482 15.9423 -0.196021C18.0667 -0.17756 20.1662 0.26382 22.1183 1.10236C24.0704 1.94091 25.8359 3.15982 27.3118 4.68799C30.2264 7.70562 31.8391 11.7473 31.8026 15.9424C31.7662 20.1376 30.0835 24.1506 27.1169 27.1171C24.1504 30.0836 20.1374 31.7663 15.9423 31.8028C11.7471 31.8392 7.70547 30.2265 4.68783 27.312ZM6.94383 25.056C9.34563 27.4578 12.6032 28.8071 15.9998 28.8071C19.3965 28.8071 22.654 27.4578 25.0558 25.056C27.4576 22.6542 28.807 19.3966 28.807 16C28.807 12.6033 27.4576 9.34579 25.0558 6.94399C22.654 4.54219 19.3965 3.19287 15.9998 3.19287C12.6032 3.19287 9.34563 4.54219 6.94383 6.94399C4.54203 9.34579 3.19272 12.6033 3.19272 16C3.19272 19.3966 4.54203 22.6542 6.94383 25.056ZM22.7838 11.472L18.2558 16L22.7838 20.528L20.5278 22.784L15.9998 18.256L11.4718 22.784L9.21583 20.528L13.7438 16L9.21583 11.472L11.4718 9.21599L15.9998 13.744L20.5278 9.21599L22.7838 11.472Z" fill="white"/>
</svg>
