<svg width="36" height="32" viewBox="0 0 36 32" fill="none" xmlns="http://www.w3.org/2000/svg">
<path d="M35.1885 8.00426C35.0275 7.77163 34.8126 7.5815 34.5621 7.45014C34.3115 7.31877 34.0329 7.2501 33.75 7.25001H9.83275L7.81325 2.40251C7.54846 1.76415 7.10007 1.21879 6.52494 0.835577C5.94982 0.452366 5.27385 0.248563 4.58275 0.250008H0.5V3.75001H4.58275L12.8847 23.6738C13.0177 23.9925 13.2421 24.2648 13.5295 24.4563C13.8169 24.6479 14.1546 24.75 14.5 24.75H28.5C29.2297 24.75 29.8825 24.2968 30.1398 23.616L35.3898 9.61601C35.489 9.3511 35.5225 9.06608 35.4874 8.78537C35.4524 8.50466 35.3498 8.23664 35.1885 8.00426ZM27.2872 21.25H15.6672L11.2922 10.75H31.2247L27.2872 21.25Z" fill="#2A8D7B"/>
<path d="M15.375 31.75C16.8247 31.75 18 30.5747 18 29.125C18 27.6753 16.8247 26.5 15.375 26.5C13.9253 26.5 12.75 27.6753 12.75 29.125C12.75 30.5747 13.9253 31.75 15.375 31.75Z" fill="#2A8D7B"/>
<path d="M27.625 31.75C29.0747 31.75 30.25 30.5747 30.25 29.125C30.25 27.6753 29.0747 26.5 27.625 26.5C26.1753 26.5 25 27.6753 25 29.125C25 30.5747 26.1753 31.75 27.625 31.75Z" fill="#2A8D7B"/>
</svg>
