<svg width="58" height="42" viewBox="0 0 58 42" fill="none" xmlns="http://www.w3.org/2000/svg">
<path d="M13.267 8.43525L13.6904 8.16781L13.4223 7.7448L11.9294 5.38977C16.7064 2.75122 22.6446 1.03751 29 1.03751C31.8083 1.03751 34.5336 1.37072 37.1125 1.97005L31.1807 4.10454L30.7131 4.2728L30.8785 4.74142L31.6285 6.86642L31.7959 7.34081L32.2693 7.17047L38.5568 4.90797L39.0244 4.73971L38.859 4.2711L38.1365 2.22392C42.3384 3.3314 46.1161 5.14335 49.1825 7.3555L49.1829 7.3558C53.1168 10.1878 55.811 13.6525 56.8647 17.0149L51.9389 19.4778L51.4939 19.7003L51.7142 20.1464L52.7142 22.1714L52.9362 22.621L53.3851 22.3977L57.3735 20.4142C57.3569 21.7582 57.2074 23.0367 56.9266 24.2508C56.7605 24.456 56.5585 24.6885 56.3441 24.9244C55.973 25.3247 55.5275 25.717 55.1303 26.0163C54.9316 26.1661 54.7511 26.288 54.6036 26.3744C54.5298 26.4176 54.4688 26.4493 54.4213 26.4706C54.3813 26.4886 54.3604 26.4949 54.3554 26.4964C54.3499 26.4967 54.3222 26.4979 54.2638 26.4854C54.1931 26.4703 54.0972 26.4395 53.9723 26.3859C53.7211 26.2781 53.3974 26.0977 52.9934 25.8407L52.9906 25.8389C52.9353 25.8042 52.8776 25.7675 52.8175 25.7292C52.0157 25.2184 50.7871 24.4358 49.2315 24.7739C48.2362 24.9897 47.4537 25.4826 46.8189 26.0834L42.6778 23.1304L42.2705 22.84L41.9803 23.2474L40.6803 25.0724L40.3904 25.4793L40.7971 25.7695L44.8619 28.6697C44.2813 29.5761 43.665 30.4272 42.6175 30.9575C42.3355 31.0151 41.982 30.969 41.5134 30.7929C41.029 30.6109 40.4769 30.3119 39.8288 29.9317C39.7323 29.8747 39.6333 29.8154 39.5318 29.7546C38.3022 29.0183 36.7044 28.0616 34.7494 28.3165C33.2666 28.5005 32.0484 29.1769 31.0048 30.0053C30.15 30.6837 29.3877 31.486 28.693 32.2171C28.5476 32.3701 28.4053 32.5199 28.2656 32.6649C27.4254 33.5302 26.6604 34.2794 25.9485 34.7584C25.2432 35.2205 24.6858 35.3979 24.0686 35.3281L24.0651 35.3278C23.1894 35.2351 22.3959 34.6612 21.6457 33.8087C20.9912 33.0651 20.4237 32.1739 19.8952 31.3441C19.8203 31.2264 19.7462 31.11 19.6727 30.9954C19.5832 30.8516 19.4928 30.7053 19.4013 30.5571C18.7252 29.4625 17.9865 28.2664 17.0848 27.2509C16.0508 26.0861 14.7708 25.1197 13.0621 24.7725L13.0546 24.771L13.0471 24.7697C11.8219 24.5593 10.6545 25.1957 9.64245 25.789C9.53156 25.854 9.42198 25.9188 9.31352 25.983C8.40339 26.5214 7.57274 27.0129 6.71757 27.1624C6.18513 26.9672 5.47862 26.406 4.71103 25.5595C3.91452 24.681 3.11491 23.5661 2.45882 22.4471C1.6831 21.123 1.07138 19.8526 0.697227 19.0206C1.1742 15.06 4.09146 10.7566 8.81411 7.35616C8.93405 7.27008 9.05371 7.18497 9.17345 7.10173L10.6774 9.47976L10.9445 9.90208L11.367 9.63525L13.267 8.43525ZM20.2506 3.20696L19.7708 3.06904L19.6322 3.54868L19.0072 5.71118L18.8677 6.19356L19.3507 6.33093L23.5257 7.51843L24.0039 7.65443L24.1426 7.17708L24.7676 5.02708L24.9076 4.5455L24.4256 4.40696L20.2506 3.20696ZM43.4479 6.15197L43.0357 5.86539L42.7508 6.27877L41.4758 8.12877L41.1932 8.53879L41.6021 8.82304L46.5646 12.273L46.9768 12.5596L47.2617 12.1462L48.5367 10.2962L48.8193 9.88622L48.4104 9.60197L43.4479 6.15197ZM37.6125 7.86251L37.314 7.46445L36.9144 7.76105L32.7894 10.8236L32.386 11.1231L32.6875 11.525L33.8552 13.082C32.4308 12.6088 30.7689 12.3625 29 12.3625C26.7213 12.3625 24.6201 12.7713 22.9756 13.5471C21.3674 14.2937 19.825 15.5696 19.825 17.5C19.825 19.4304 21.3674 20.7063 22.9755 21.4529C24.6201 22.2288 26.7213 22.6375 29 22.6375C31.2787 22.6375 33.3799 22.2288 35.0244 21.4529C36.6326 20.7063 38.175 19.4304 38.175 17.5C38.175 15.5696 36.6325 14.2936 35.0243 13.5471C34.9323 13.5037 34.8388 13.4614 34.7439 13.4203L38.8605 10.364L39.264 10.0645L38.9625 9.66251L37.6125 7.86251ZM18.0822 12.3402L18.0096 11.8429L17.5127 11.9181L11.8127 12.7806L11.3209 12.8551L11.3927 13.3473L11.7177 15.5723L11.7904 16.0696L12.2873 15.9944L17.9873 15.1319L18.4791 15.0575L18.4072 14.5652L18.0822 12.3402ZM47.7584 13.4347L47.6313 12.954L47.1499 13.0784L41.2499 14.6034L40.7631 14.7292L40.8916 15.2153L41.4666 17.3903L41.5937 17.871L42.0751 17.7466L47.9751 16.2216L48.4619 16.0958L48.3334 15.6097L47.7584 13.4347ZM24.3455 16.4922L24.3455 16.4922L24.3513 16.4895C25.4314 15.9785 27.1045 15.6125 29 15.6125C30.8955 15.6125 32.5686 15.9785 33.6487 16.4895L33.6486 16.4895L33.6545 16.4922C34.198 16.7408 34.5306 16.994 34.72 17.1955C34.8839 17.37 34.9168 17.4779 34.9234 17.4995C34.9234 17.4997 34.9235 17.4998 34.9235 17.5C34.9235 17.5002 34.9234 17.5003 34.9234 17.5005C34.9168 17.5221 34.8839 17.63 34.72 17.8045C34.5306 18.006 34.198 18.2592 33.6545 18.5078L33.6545 18.5078L33.6487 18.5105C32.5686 19.0215 30.8955 19.3875 29 19.3875C27.1045 19.3875 25.4314 19.0215 24.3513 18.5105L24.3514 18.5105L24.3455 18.5078C23.802 18.2592 23.4694 18.006 23.28 17.8045C23.1161 17.63 23.0832 17.5221 23.0766 17.5005C23.0766 17.5003 23.0765 17.5002 23.0765 17.5C23.0765 17.4998 23.0766 17.4997 23.0766 17.4995C23.0832 17.4779 23.1161 17.37 23.28 17.1955C23.4694 16.994 23.802 16.7408 24.3455 16.4922ZM4.87567 16.8963L4.4092 16.7155L4.22868 17.1821L3.41618 19.2821L3.23586 19.7482L3.70183 19.9287L8.66933 21.8537L9.1358 22.0345L9.31631 21.5679L10.1288 19.4679L10.3091 19.0019L9.84317 18.8213L4.87567 16.8963ZM51.4293 28.6955C52.1578 29.1668 53.2557 29.8771 54.6382 29.7338C53.2774 31.8678 51.4307 33.7282 49.1991 35.3041C44.0885 38.9071 36.908 40.9625 29 40.9625C21.0918 40.9625 13.9112 38.907 8.8019 35.3039C5.95418 33.2878 3.74206 30.8182 2.34106 27.9162C3.33876 29.0026 4.51007 29.8963 5.90441 30.3048L5.90439 30.3049L5.91316 30.3073C7.3882 30.7105 8.58276 30.1066 9.60978 29.4665C9.80407 29.3454 9.98803 29.226 10.1678 29.1093C10.4853 28.9031 10.7897 28.7055 11.115 28.5221C11.5791 28.2605 12.0313 28.0621 12.5008 27.9722C13.2546 28.1549 13.9596 28.6829 14.6797 29.5071C15.4269 30.3623 16.1408 31.4774 16.9126 32.7135C16.9128 32.714 16.9131 32.7144 16.9134 32.7148L16.937 32.7531C18.4645 35.2293 20.1198 37.9127 23.6976 38.5669L23.7202 38.571L23.743 38.573C25.2854 38.7107 26.647 38.1985 27.7512 37.4668C28.8412 36.7445 29.7517 35.8051 30.5973 34.9222C30.6352 34.8831 30.6734 34.8437 30.7118 34.8041C31.9135 33.5638 33.3305 32.1013 35.2008 31.5293C35.511 31.5001 35.903 31.583 36.406 31.7928C36.9249 32.0091 37.5075 32.3364 38.1695 32.7298L38.1713 32.7309C38.212 32.7548 38.2531 32.7791 38.2946 32.8036C39.5852 33.5653 41.3139 34.5854 43.371 34.1256C45.4771 33.6576 46.6153 31.9219 47.4704 30.618C47.5331 30.5224 47.5942 30.4292 47.6541 30.339L47.657 30.3346C48.1055 29.6432 48.5044 29.0747 48.8916 28.6572C49.2814 28.2369 49.6152 28.0186 49.921 27.9506L49.921 27.9507L49.9292 27.9487C49.9271 27.9492 49.9277 27.9492 49.9311 27.9494C49.949 27.9503 50.0469 27.9553 50.2771 28.0527C50.5254 28.1578 50.8486 28.3349 51.2603 28.5867C51.3142 28.621 51.3706 28.6575 51.4293 28.6955ZM29.1447 25.1277L29.0724 24.6326L28.5774 24.7053L22.2774 25.6303L21.783 25.7029L21.8552 26.1973L22.1802 28.4223L22.2526 28.9174L22.7476 28.8447L29.0476 27.9197L29.542 27.8471L29.4697 27.3527L29.1447 25.1277Z" fill="#2A8D7B" stroke="black"/>
</svg>
