<svg width="18" height="20" viewBox="0 0 18 20" fill="none" xmlns="http://www.w3.org/2000/svg">
<path d="M11 6.34828V7.34828H12H16C16.2464 7.34828 16.495 7.45133 16.6875 7.65496C16.8817 7.8605 17 8.15073 17 8.46437V10.5805C17 10.8941 16.8817 11.1843 16.6875 11.3899C16.495 11.5935 16.2464 11.6966 16 11.6966H12H11V12.6966V16.9287C11 17.2424 10.8817 17.5326 10.6875 17.7382C10.495 17.9418 10.2464 18.0448 10 18.0448H8C7.75357 18.0448 7.505 17.9418 7.31255 17.7382C7.11828 17.5326 7 17.2424 7 16.9287V12.6966V11.6966H6H2C1.75357 11.6966 1.505 11.5935 1.31255 11.3899L0.597348 12.0658L1.31255 11.3899C1.11829 11.1843 1 10.8941 1 10.5805V8.46437C1 8.15073 1.11828 7.8605 1.31255 7.65496C1.505 7.45133 1.75357 7.34828 2 7.34828H6H7V6.34828V2.11609C7 1.80245 7.11829 1.51222 7.31255 1.30668C7.505 1.10305 7.75357 1 8 1H10C10.2464 1 10.495 1.10305 10.6875 1.30668C10.8817 1.51222 11 1.80245 11 2.11609V6.34828Z" stroke="white" stroke-width="2"/>
</svg>
